# xmcd
#
# Track frame offsets:
#	150
#	19281
#	42455
#	56113
#	74661
#	93293
#	106655
#	122933
#	132059
#	151095
#	164718
#	182802
#	196927
#	208571
#	222772
#	237460
#	249472
#	270952
#	285950
#	298920
#	317481
#	333940
#
# Disc length: 4646 seconds
#
# Revision: 0
# Processed by: cddbd v1.5.2PL0 Copyright (c) Steve Scherf et al.
# Submitted via: EasyCDDAExtractor 15.3.0.1
#
DISCID=47122416
DTITLE=Safet Isović - Zapisano u Vremenu CD1 
DYEAR=2009
DGENRE=SEVDALINKE
TTITLE0=Jablani Se Povijaju
TTITLE1=Kraj Bagrema
TTITLE2=Od Svega Me Sačuvala Majka
TTITLE3=Ne Ljubi Ciganku
TTITLE4=Jedna Ode, Druga Dođe
TTITLE5=Evo Ovu Rumen Ružu
TTITLE6=Mislio Sam Svaki Dan
TTITLE7=Da Zna Zora
TTITLE8=Ako Hoće, Hoće
TTITLE9=Kad Bi Znala
TTITLE10=Život Sam Ti Draga Dao
TTITLE11=Vrbas Voda Nosila Jablana
TTITLE12=Nigdje Zore Ni Bijela Dana
TTITLE13=Danas Jedna, Sutra Druga
TTITLE14=Divno Sarajevo, Ilidža Te Krasi
TTITLE15=Kad Ja Pođoh Draga Do Sarajeva Grada
TTITLE16=Djevojka Sokolu Zulum Učinila
TTITLE17=Šta Ćeš Meni Ti, Šta Ću Tebi Ja
TTITLE18=Svi Su Ljudi Isti
TTITLE19=Zašto Suze Lijem
TTITLE20=Jednu Ljubim a Mislim Na Drugu
TTITLE21=Ne Mogu Više Bez Nje
EXTD=
EXTT0=
EXTT1=
EXTT2=
EXTT3=
EXTT4=
EXTT5=
EXTT6=
EXTT7=
EXTT8=
EXTT9=
EXTT10=
EXTT11=
EXTT12=
EXTT13=
EXTT14=
EXTT15=
EXTT16=
EXTT17=
EXTT18=
EXTT19=
EXTT20=
EXTT21=
PLAYORDER=
